<svg version="1.0" xmlns="http://www.w3.org/2000/svg"
 width="300.000000pt" height="200.000000pt" viewBox="0 0 225.000000 225.000000"
 preserveAspectRatio="xMidYMid meet">
<g transform="translate(0.000000,225.000000) scale(0.100000,-0.100000)"
fill="#000000" stroke="none">
<path d="M466 1861 c-14 -21 25 -32 111 -30 l88 2 111 -339 112 -338 -37 -16
c-63 -29 -79 -97 -35 -149 24 -29 30 -31 95 -31 68 0 80 -5 58 -27 -18 -18
-15 -87 4 -117 27 -41 82 -61 128 -47 55 17 82 55 77 111 -3 25 -8 53 -12 63
-8 16 3 17 139 17 l147 0 -8 -22 c-4 -13 -8 -42 -8 -65 -1 -82 83 -133 158
-98 60 29 80 95 51 167 -6 15 2 17 67 20 42 2 72 7 71 13 -2 6 -168 12 -461
15 -497 5 -492 5 -492 60 0 60 0 60 415 62 l378 3 62 280 c35 154 61 283 58
288 -2 4 -226 7 -498 7 l-493 0 -29 88 -30 87 -111 3 c-61 1 -113 -1 -116 -7z
m1228 -228 c-15 -66 -93 -424 -99 -450 l-7 -33 -326 0 -327 0 -79 238 c-43
130 -81 243 -84 250 -3 9 93 12 461 12 438 0 465 -1 461 -17z"/>
<path d="M966 1571 c-7 -10 48 -324 59 -342 8 -11 32 -12 39 -1 3 5 -9 85 -27
178 -25 131 -36 170 -49 172 -9 2 -19 -2 -22 -7z"/>
<path d="M1217 1573 c-4 -3 -7 -82 -7 -175 0 -145 2 -169 16 -175 9 -3 20 0
25 8 10 16 12 308 3 333 -6 16 -26 21 -37 9z"/>
<path d="M1462 1563 c-5 -10 -22 -87 -37 -171 -22 -118 -26 -155 -17 -164 23
-23 39 16 66 162 14 80 26 155 26 168 0 26 -25 30 -38 5z"/>
</g>
</svg>
